# xmcd
#
# Track frame offsets:
#	150
#	12546
#	25683
#	37282
#	49665
#	60682
#	72700
#	82769
#	95334
#	107869
#	119664
#	132019
#
# Disc length: 1924 seconds
# Revision: 0
# Processed by: cddbd v1.5.2PL0 Copyright (c) Steve Scherf et al.
# Submitted via: dBpowerAMP V12.0
#
DISCID=a607820c
DTITLE=Hank Williams - Original American Classics, Vol. 1
DYEAR=1993
DGENRE=Country
TTITLE0=Your Cheatin' Heart
TTITLE1=Jambalaya (On the Bayou)
TTITLE2=Kaw-Liga
TTITLE3=Half as Much
TTITLE4=I Can't Help It If I'm Still in Love With You
TTITLE5=Weary Blues From Waitin'
TTITLE6=Honky Tonk Blues
TTITLE7=Fly Trouble
TTITLE8=My Sweet Love Ain't Around
TTITLE9=Baby, We're Really in Love
TTITLE10=There'll Be No Teardrops Tonight
TTITLE11=The Lost Highway
EXTD=
EXTT0=
EXTT1=
EXTT2=
EXTT3=
EXTT4=
EXTT5=
EXTT6=
EXTT7=
EXTT8=
EXTT9=
EXTT10=
EXTT11=
PLAYORDER=
